<svg width="85" height="84" viewBox="0 0 85 84" fill="none" xmlns="http://www.w3.org/2000/svg"><path d="M79.496 24.696c0-1.412-.3-2.66-.904-3.732-.594-1.053-1.484-1.936-2.678-2.634-9.851-5.737-19.712-11.456-29.56-17.2-2.655-1.547-5.23-1.491-7.865.08-3.921 2.335-23.553 13.695-29.403 17.117-2.41 1.409-3.582 3.564-3.582 6.366-.004 11.538 0 23.075-.004 34.613 0 1.382.287 2.606.865 3.66.595 1.086 1.497 1.993 2.718 2.707 5.85 3.422 25.485 14.781 29.405 17.117 2.636 1.571 5.21 1.627 7.867.079 9.848-5.743 19.71-11.463 29.563-17.2 1.22-.713 2.123-1.621 2.717-2.705.578-1.055.865-2.28.865-3.66 0 0 0-23.07-.004-34.608z" fill="#A179DC"/><path d="M42.613 41.888L6.365 62.967c.595 1.085 1.497 1.992 2.718 2.706 5.85 3.422 25.485 14.781 29.405 17.117 2.636 1.572 5.21 1.628 7.867.08 9.848-5.744 19.71-11.463 29.563-17.2 1.22-.714 2.123-1.622 2.717-2.706L42.613 41.888z" fill="#280068"/><path d="M79.496 24.696c0-1.412-.3-2.66-.904-3.732L42.613 41.887l36.022 21.077c.578-1.055.864-2.28.865-3.66 0 0 0-23.07-.004-34.608z" fill="#390091"/><path d="M63.955 34.007v3.94h3.901v-3.94h1.95v3.94h3.902v1.97h-3.901v3.94h3.9v1.97h-3.9v3.94h-1.95v-3.94h-3.902v3.94h-1.95v-3.94h-3.902v-1.97h3.902v-3.94h-3.902v-1.97h3.902v-3.94h1.95zm3.901 5.91h-3.9v3.94h3.9v-3.94z" fill="#fff"/><path d="M42.693 14.22c10.175 0 19.059 5.581 23.817 13.877l-.046-.08-11.972 6.962c-2.359-4.033-6.683-6.755-11.643-6.811l-.156-.001c-7.565 0-13.697 6.193-13.697 13.833 0 2.498.66 4.84 1.806 6.863 2.361 4.163 6.8 6.97 11.89 6.97 5.123 0 9.587-2.843 11.936-7.05l-.057.1 11.954 6.995c-4.707 8.226-13.469 13.79-23.526 13.9l-.306.003c-10.208 0-19.117-5.616-23.863-13.956A27.867 27.867 0 0 1 15.186 42c0-15.342 12.314-27.78 27.506-27.78z" fill="#fff"/></svg>