<svg width="85" height="84" viewBox="0 0 85 84" fill="none" xmlns="http://www.w3.org/2000/svg"><g clip-path="url(#a)"><circle cx="42.5" cy="42" r="42" fill="#621EE5"/><path d="M12.852 44.386a1.848 1.848 0 0 0-.6-.425 1.746 1.746 0 0 0-.715-.149 1.741 1.741 0 0 0-.715.143 1.847 1.847 0 0 0-.6.425c-.173.176-.31.383-.4.611a2.037 2.037 0 0 0-.136.723c-.005.25.042.494.137.723a1.9 1.9 0 0 0 .405.61 1.755 1.755 0 0 0 1.315.559 1.8 1.8 0 0 0 1.315-.558 1.76 1.76 0 0 0 .41-.606 1.88 1.88 0 0 0 .142-.723c0-.25-.047-.494-.142-.722a1.819 1.819 0 0 0-.416-.611zm22.014-4.315c-.026 1.19.032 2.386.168 3.571h-.063c-.147-.292-.473-.834-.973-1.626L22.005 23h-3.64v24.276h2.799v-17.55a25.2 25.2 0 0 0-.132-3.33h.105a8.2 8.2 0 0 0 .763 1.519l12.32 19.361h3.444V23h-2.798v17.072zm21.772 4.538h-9.89v-8.41h8.654v-2.562h-8.653v-8.065h9.284V23H43.882v24.276h12.74l.016-2.667zM58.778 23v2.572h6.891v21.704h2.799V25.572h6.97V23h-16.66zM31.353 53.312a5.279 5.279 0 0 0-1.851 1.26 5.964 5.964 0 0 0-1.231 2.008 6.09 6.09 0 0 0-.363 2.332 5.722 5.722 0 0 0 1.42 3.996 4.89 4.89 0 0 0 3.777 1.53 6.404 6.404 0 0 0 3.05-.654l.011-1.237a5.372 5.372 0 0 1-2.877.743 3.72 3.72 0 0 1-2.903-1.211 4.663 4.663 0 0 1-1.105-3.262 4.875 4.875 0 0 1 1.183-3.438 4.07 4.07 0 0 1 1.4-1.01 3.997 3.997 0 0 1 1.688-.324 5.182 5.182 0 0 1 2.63.664v-1.333a6.37 6.37 0 0 0-2.63-.468 5.647 5.647 0 0 0-2.199.404zm13.114 3.804a3.533 3.533 0 0 0-1.253-.856 3.502 3.502 0 0 0-1.493-.249 3.836 3.836 0 0 0-1.583.26 4.06 4.06 0 0 0-1.352.872 4.344 4.344 0 0 0-1.089 3.145 4.195 4.195 0 0 0 1.036 2.97c.358.388.79.697 1.273.904a3.589 3.589 0 0 0 1.526.281 3.743 3.743 0 0 0 1.557-.292c.494-.207.936-.52 1.299-.92a4.31 4.31 0 0 0 1.062-3.06 4.43 4.43 0 0 0-.983-3.055zm-.963 5.457a2.291 2.291 0 0 1-1.878.802 2.453 2.453 0 0 1-1.052-.19 2.432 2.432 0 0 1-.868-.633 3.277 3.277 0 0 1-.71-2.237 3.486 3.486 0 0 1 .71-2.317c.237-.276.532-.494.863-.643a2.396 2.396 0 0 1 1.052-.196 2.24 2.24 0 0 1 1.036.191c.326.144.616.361.847.638a3.57 3.57 0 0 1 .658 2.306 3.504 3.504 0 0 1-.658 2.279zm6.097-5.977a2.803 2.803 0 0 0-.826 1.333v-1.668H47.46v7.991h1.315v-4.075a3.611 3.611 0 0 1 .536-2.104 1.61 1.61 0 0 1 1.315-.77c.337-.027.674.063.958.254V56.24a2.105 2.105 0 0 0-.747-.107 1.845 1.845 0 0 0-1.236.463zm9.678 3.3a4.263 4.263 0 0 0-.841-2.822c-.3-.34-.668-.611-1.084-.786a2.92 2.92 0 0 0-1.31-.229 3.325 3.325 0 0 0-2.63 1.174 4.394 4.394 0 0 0-1.036 3.034 4.482 4.482 0 0 0 .957 3.06 3.325 3.325 0 0 0 2.63 1.095 4.536 4.536 0 0 0 2.746-.76v-1.2a3.924 3.924 0 0 1-2.446.892 2.44 2.44 0 0 1-1.867-.723 2.985 2.985 0 0 1-.668-2.05h5.56l-.01-.686zm-5.56-.373a2.947 2.947 0 0 1 .773-1.69 2.031 2.031 0 0 1 1.515-.653 1.776 1.776 0 0 1 1.447.611c.368.494.552 1.1.526 1.716l-4.26.016z" fill="#fff"/></g><defs><clipPath id="a"><path fill="#fff" transform="translate(.5)" d="M0 0h84v84H0z"/></clipPath></defs></svg>