<svg width="120" height="120" viewBox="0 0 120 120" fill="none" xmlns="http://www.w3.org/2000/svg"><path d="M16.762 108L7.142 0h105.715l-9.634 107.986L59.935 120l-43.173-12z" fill="#E44D26"/><path d="M58.571 111.429l35.847-9.783 8.439-93.075H58.571V111.43z" fill="#F16529"/><path d="M58.571 48.205H41.985l-1.136-13.538h17.722V21.429H27.143l.31 3.552 3.069 36.448h28.05V48.205zm0 35.02l-.056.014-14.503-4.005-.928-10.663H30l1.827 20.979 26.688 7.593.056-.015V83.225z" fill="#EBEBEB"/><path d="M58.571 48.571v13.345h17.412l-1.646 17.319L58.57 83.25v13.892l28.985-7.587.213-2.26 3.324-35.14.335-3.585H58.572zm0-27.142v14.285h33.061l.28-3.217.62-7.235.325-3.833H58.571z" fill="#fff"/></svg>