<svg width="120" height="120" viewBox="0 0 120 120" fill="none" xmlns="http://www.w3.org/2000/svg"><path d="M59.943 120l-43.18-12L7.143 0h105.714l-9.621 107.986" fill="#484747"/><path d="M94.705 101.646l8.152-93.075H60V111.43" fill="#484747"/><path d="M62.857 21.429v14.285l28.9-.708 1.1-13.577m-5.014 27.142H62.857v13.14l17.037-1.092-1.541 17.605-15.496 3.84v13.65l24.914-6.79.202-2.224 3.139-34.6.317-3.529" fill="#484747"/><path d="M73.144 55.714H62.857V28.571h11.429M57.143 82.15l-16.802-4.784-.532-7.303-8.38-1.492L33.25 89.06l23.893 6.655" fill="#484747"/><path d="M57.142 21.429H45.714L48.095 90h9.047" fill="#484747"/><path d="M59.943 120l-43.18-12L7.143 0h105.714l-9.621 107.986" fill="#EE7C22"/><path d="M94.705 101.646l8.152-93.075H60V111.43" fill="#F49C25"/><path d="M62.857 21.429v14.285l28.9-.708 1.1-13.577m-5.014 27.142H62.857v13.14l17.037-1.092-1.541 17.605-15.496 3.84v13.65l24.914-6.79.202-2.224 3.139-34.6.317-3.529" fill="#fff"/><path d="M73.144 55.714H62.857V28.571h11.429" fill="#fff"/><path d="M57.143 82.15l-16.802-4.784-.532-7.303-8.38-1.492L33.25 89.06l23.893 6.655" fill="#F0F0F0"/><path d="M57.142 21.429H45.714L48.095 90h9.047" fill="#F0F0F0"/></svg>