<svg width="120" height="121" viewBox="0 0 120 121" fill="none" xmlns="http://www.w3.org/2000/svg"><g clip-path="url(#a)"><path d="M73.386 56.52l-23.445 7.847-20.398 9.228-5.706 1.544a125.013 125.013 0 0 1-4.625 4.305c-1.808 1.598-3.491 3.052-4.785 4.105-1.436 1.163-3.562 3.342-4.643 4.723-1.613 2.07-2.889 4.268-3.438 5.958-.975 3.051-.496 6.139 1.382 8.991 2.41 3.633 7.213 7.338 12.813 9.863 2.853 1.29 7.656 2.943 11.27 3.869 6.008 1.563 17.633 3.252 24.03 3.506 1.294.055 3.031.055 3.102 0 .142-.091 1.134-2.034 2.286-4.45 3.934-8.229 6.77-15.948 8.311-22.542.922-3.996 1.648-9.319 2.127-15.621.124-1.762.177-7.666.07-9.664-.159-3.27-.442-5.921-.885-8.519-.071-.381-.089-.726-.053-.745.07-.054.283-.127 3.171-.98l-.584-1.417v-.001zm-5.351 3.215c.212 0 .779 5.577.92 9.1.036.746.018 1.236-.017 1.236-.142 0-2.995-1.725-5.033-3.033-1.772-1.145-5.139-3.433-5.67-3.87-.178-.126-.16-.145 1.293-.653 2.463-.854 8.312-2.78 8.507-2.78zM56.09 63.768c.16 0 .567.236 1.542.854 3.65 2.343 8.613 5.177 10.74 6.121.654.291.725.182-.78 1.235-3.226 2.253-7.25 4.469-12.176 6.703-.868.4-1.594.708-1.612.708-.035 0 .07-.454.212-.999 1.188-4.523 1.861-9.1 1.897-12.77.018-1.816.018-1.816.177-1.87-.036.018-.018.018 0 .018zm-2.463.963c.106.108.035 4.178-.107 5.285a47.219 47.219 0 0 1-1.63 7.902c-.195.672-.372 1.235-.407 1.271-.072.091-2.5-2.343-3.297-3.287-1.382-1.635-2.463-3.27-3.26-4.868-.408-.818-1.046-2.416-.993-2.47.284-.2 9.623-3.906 9.694-3.833zm-11.59 4.668c.018 0 .035 0 .053.018.035.036.16.327.266.654.567 1.58 1.843 3.905 2.942 5.395 1.205 1.635 2.782 3.378 4.093 4.523.426.363.815.708.868.763.107.109.142.09-2.746 1.217-3.35 1.307-7 2.615-11.183 3.996a535.9 535.9 0 0 0-2.994.999c-.16.054-.106-.037.354-.781 2.074-3.325 5.228-9.845 7-14.46.302-.799.603-1.597.656-1.78.07-.254.16-.344.39-.472.124-.036.248-.072.3-.072zm-3.544 1.507c.053.037-.85 1.98-1.737 3.76-1.719 3.434-3.598 6.812-6.114 10.917a48.237 48.237 0 0 1-.886 1.435c-.088.128-.124.091-.407-.472-.603-1.217-1.1-2.78-1.365-4.214-.266-1.417-.213-3.887.089-5.413.23-1.126.212-1.108.744-1.38 2.268-1.181 9.605-4.705 9.676-4.633zm30.57 1.272v.763c0 4.05-.426 9.609-1.047 13.66-.106.708-.195 1.29-.212 1.308 0 0-.514-.146-1.117-.328a45.148 45.148 0 0 1-8.151-3.578c-1.72-.962-4.218-2.543-4.147-2.616.017-.018.762-.417 1.63-.89 3.474-1.852 6.805-3.85 9.694-5.83 1.08-.745 2.71-1.944 3.066-2.271l.283-.218zm-43.95 5.377c.07 0 .053.145-.053.799-.071.472-.16 1.344-.195 1.943-.142 2.652.284 4.614 1.56 7.302.354.745.638 1.363.62 1.38-.125.11-11.856 3.634-15.542 4.67-1.099.308-2.056.58-2.127.598-.124.037-.141.019-.088-.29.407-2.67 2.392-6.158 5.156-9.1 1.844-1.962 3.315-3.106 5.831-4.578 1.808-1.053 4.59-2.634 4.803-2.706 0-.018.017-.018.035-.018zm27.646 5.067c.017-.018.442.219.956.527 3.793 2.253 9.073 4.342 13.575 5.413l.407.091-.567.327c-2.356 1.344-10.1 4.65-18.022 7.684-1.152.435-2.286.871-2.5.962-.212.09-.407.145-.407.127 0-.018.32-.654.727-1.435 2.215-4.25 4.448-9.427 5.582-13.024.142-.345.23-.653.249-.672zm-2.818.945c.018.019-.124.4-.302.836-1.541 3.832-3.562 8.01-6.149 12.697-.655 1.199-1.205 2.161-1.223 2.161-.017 0-.55-.327-1.187-.726-3.757-2.362-7.089-5.268-9.268-8.084l-.32-.4 1.613-.453c5.778-1.617 10.686-3.36 15.56-5.504.69-.29 1.258-.527 1.276-.527zm17.508 6.267s.018.018 0 0c.018.418-.885 4.16-1.63 6.866-.62 2.27-1.152 4.051-2.126 7.193-.426 1.381-.798 2.525-.816 2.525a1.15 1.15 0 0 1-.23-.054c-5.263-.982-9.977-2.344-14.407-4.16-1.241-.509-3.013-1.327-3.12-1.417-.035-.037 1.029-.545 2.375-1.145 8.064-3.614 16.428-7.72 19.299-9.481.337-.218.602-.327.656-.327zM27.028 91.25c.035.036-2.215 3.36-5.37 7.883-1.098 1.58-2.374 3.433-2.853 4.123a74.376 74.376 0 0 0-1.612 2.434l-.745 1.181-.797-.69c-.94-.799-2.57-2.507-3.297-3.451-1.524-1.944-2.551-3.996-2.959-5.867-.195-.872-.195-1.309-.018-1.363.266-.072 4.998-1.217 9.428-2.27a779.995 779.995 0 0 0 6.344-1.526 97.772 97.772 0 0 1 1.879-.454zm2.268.89l.567.653c2.552 2.925 5.157 5.087 8.312 6.976.567.327.992.617.956.636-.123.09-10.951 4.032-15.967 5.812a429.395 429.395 0 0 1-5.156 1.835c-.018 0-.177-.109-.355-.237l-.319-.236.514-.763c1.666-2.47 3.757-5.176 8.312-10.807l3.136-3.87zm14.142 10.371c.018-.018.797.273 1.754.636 2.304.891 4.13 1.453 6.575 2.089 3.013.782 7.372 1.544 9.942 1.762.39.037.603.073.532.127-.125.073-2.73.963-4.643 1.581-3.049.981-12.352 3.796-19.937 6.03-1.4.418-2.605.763-2.676.781-.177.037-.762-.127-.762-.199 0-.037.425-.6.939-1.218a107.55 107.55 0 0 0 7.195-9.917c.585-.909 1.081-1.653 1.081-1.672zm-3.12.092c.019.018-1.24 2.088-3.437 5.648-.94 1.508-1.985 3.215-2.357 3.815-.355.581-.886 1.49-1.187 1.998l-.514.927-.266-.073c-.638-.182-5.122-1.799-6.309-2.289a43.422 43.422 0 0 1-4.13-1.943c-1.417-.782-3.189-1.944-3.047-1.98.035-.018 2.463-.691 5.387-1.508 7.762-2.162 12.068-3.415 14.886-4.323.514-.164.957-.291.975-.272zm22.064 5.303h.018c.07.182-2.8 8.356-3.846 10.935-.23.581-.318.727-.443.709-.3-.018-4.465-.618-7-.999-4.412-.691-11.82-2.017-13.68-2.453l-.426-.09 2.64-.618c5.671-1.308 8.4-2.016 11.165-2.888a77.77 77.77 0 0 0 10.438-4.123c.55-.255 1.01-.455 1.134-.473z" fill="url(#b)"/><path d="M49.214.5c-.39-.053-6.68 2.272-10.739 3.96C33 6.75 28.746 8.93 26.123 10.819c-.974.71-2.197 1.962-2.392 2.453-.07.181-.107.4-.107.617L26 16.195l5.653 1.853 13.45 2.47 15.383 2.707.16-1.363c-.054 0-.089-.018-.142-.018l-2.02-.327-.408-.744c-2.091-3.779-4.395-8.465-5.742-11.626-1.045-2.452-2.038-5.285-2.587-7.32C49.444.592 49.409.52 49.215.501zm-.284.928h.018c.018.018.089.526.16 1.126.3 2.543.85 4.995 1.719 7.647.656 1.998.656 1.89-.106 1.653-1.808-.509-9.906-1.944-15.772-2.78-.94-.126-1.737-.253-1.737-.272-.071-.072 4.235-2.38 6.131-3.287 2.428-1.145 9.091-3.997 9.587-4.087zM31.847 9.565l.691.236c3.757 1.308 13.202 3.16 18.413 3.597.584.054 1.08.109 1.098.109.018.018-.478.29-1.116.6-2.516 1.289-5.281 2.87-7.195 4.086-.567.363-1.081.654-1.152.654-.07 0-.443-.072-.833-.127l-.709-.11-1.771-1.78a748.992 748.992 0 0 0-6.504-6.411l-.922-.854zm-.709.563l2.5 3.197c1.364 1.762 2.746 3.488 3.047 3.869.301.382.55.69.532.709-.071.054-3.615-.654-5.494-1.09-1.931-.454-2.729-.672-3.916-1.054l-.975-.327v-.254c.018-1.217 1.524-3.034 4.076-4.886l.23-.164zm21.23 4.36c.072 0 .16.163.372.654.603 1.362 2.482 5.031 2.942 5.74.142.236.39.254-2.108-.164-6.008-1-7.94-1.326-7.94-1.362 0-.018.178-.145.408-.273 1.861-1.053 3.74-2.397 5.405-3.832.408-.345.78-.672.85-.727.018-.036.054-.054.071-.036z" fill="url(#c)"/><path d="M23.855 13.017s-.39.636-.018 1.58c.23.582.904 1.29 1.666 2.017 0 0 7.886 7.883 8.843 9.01 4.36 5.158 6.256 10.244 6.433 17.256.106 4.504-.727 8.464-2.8 13.06-3.686 8.246-11.466 17.347-23.463 27.447l1.754-.6c1.134-.872 2.676-1.798 6.291-3.833 8.347-4.686 17.74-8.991 29.258-13.423 16.587-6.394 43.86-13.878 59.384-16.312l1.613-.255-.248-.4c-1.417-2.252-2.392-3.65-3.562-5.14-3.402-4.323-7.531-7.828-12.582-10.735-6.947-3.978-15.932-7.084-27.309-9.39-2.144-.437-6.858-1.272-10.686-1.872a1073.198 1073.198 0 0 1-19.139-3.196c-2.073-.364-5.175-.909-7.23-1.363-1.064-.236-3.101-.726-4.696-1.29-1.276-.508-3.12-1.017-3.51-2.56zm4.572 4.541c.018-.017.301.091.674.218.673.236 1.541.509 2.57.8.777.219 1.557.43 2.339.635 1.063.273 1.949.527 1.966.527.125.127 1.915 5.994 2.517 8.246.23.854.408 1.58.39 1.58-.018.02-.213-.29-.443-.708-2.074-3.742-5.352-7.538-9.145-10.59-.496-.362-.868-.69-.868-.708zm8.72 2.47c.088 0 .478.055.956.164 3.013.69 8.418 1.744 11.873 2.343.585.091 1.046.2 1.046.236 0 .037-.213.164-.479.31-.584.308-2.941 1.743-3.72 2.288-1.968 1.344-3.74 2.797-5.016 4.105-.514.527-.957.963-.957.963s-.106-.309-.195-.69c-.638-2.526-1.967-6.267-3.172-8.901-.195-.418-.355-.8-.355-.835 0 .036 0 .018.018.018zm15.346 2.998c.106.036.283.654.637 2.016a30.45 30.45 0 0 1 .851 8.32c-.035.762-.07 1.47-.106 1.562l-.053.181-.922-.309c-1.896-.617-4.98-1.544-7.62-2.307-1.506-.417-2.729-.799-2.729-.835 0-.11 2.198-2.361 3.137-3.215 1.79-1.617 6.645-5.468 6.805-5.413zm1.223.181c.053-.054 7.336 1.235 10.65 1.89 2.464.49 6.043 1.253 6.256 1.344.106.036-.266.254-1.454.799-4.678 2.162-8.151 4.105-11.607 6.466-.904.618-1.666 1.126-1.683 1.126-.018 0-.036-.526-.036-1.162 0-3.451-.673-6.939-1.914-9.881-.124-.29-.23-.563-.212-.582zm18.837 3.815c.053.055-.177 1.526-.39 2.398-.638 2.706-2.357 6.72-4.465 10.499-.373.672-.71 1.217-.745 1.235-.035.018-.514-.255-1.063-.581-2.056-1.236-4.395-2.398-6.947-3.488-.708-.309-1.329-.563-1.346-.6-.125-.108 5.582-3.978 8.594-5.83 2.393-1.49 6.291-3.706 6.362-3.633zm1.347.218c.16 0 3.385.908 5.068 1.417 4.165 1.271 8.95 3.07 12.069 4.523l1.293.6-.904.217c-7.62 1.798-14.141 3.87-20.432 6.485-.514.218-.975.4-1.01.4-.036 0 .142-.418.372-.927 1.896-4.123 3.119-8.428 3.42-12.098.018-.345.07-.617.124-.617zm-32.11 7.556c.052-.054 2.516.545 3.845.926 2.02.582 6.308 2.053 6.308 2.162 0 .018-.478.436-1.045.945-2.322 1.98-4.555 4.068-7.23 6.72-.798.782-1.471 1.418-1.507 1.418-.035 0-.053-.11-.035-.255.407-3.052.319-6.975-.248-10.953-.053-.509-.106-.945-.089-.963zm51.763.055c.035.036-1.134 1.925-1.879 2.997-1.063 1.562-2.623 3.633-6.149 8.174a1198.7 1198.7 0 0 0-4.643 6.012c-.709.909-1.293 1.671-1.311 1.671-.018 0-.248-.327-.496-.726-1.985-3.052-4.36-5.722-7.178-8.12a41.057 41.057 0 0 0-1.31-1.09c-.196-.145-.355-.29-.355-.308 0-.055 3.012-1.38 5.298-2.325 4.005-1.672 9.463-3.67 13.557-4.96 2.144-.69 4.43-1.362 4.466-1.325zm1.365.363c.07-.018.496.2 1.01.508 4.306 2.525 8.524 5.777 11.856 9.12.939.944 3.26 3.414 3.225 3.432 0 0-.816.073-1.772.145-7.461.582-17.013 2.199-26.192 4.469-.62.145-1.17.272-1.206.272-.035 0 .656-.708 1.525-1.562 5.387-5.322 7.85-8.682 10.756-14.677.408-.89.762-1.652.798-1.707-.018 0-.018 0 0 0zm-39.466 4.142c.248.054 2.552 1.162 4.289 2.052 1.595.817 3.987 2.125 4.111 2.234.018.018-.833.472-1.878 1a122.595 122.595 0 0 0-9.162 5.176c-.851.527-1.56.963-1.578.963-.07 0-.053-.073.426-.963 1.595-2.979 2.87-6.539 3.598-10.008.07-.273.141-.454.194-.454zm-2.304.435c.054.055-.549 2.29-.921 3.506-.727 2.307-1.95 5.195-3.137 7.375-.284.508-.709 1.253-.94 1.67l-.442.727-.992-.98c-1.152-1.145-2.092-1.853-3.296-2.489-.48-.254-.851-.472-.851-.508 0-.145 3.03-2.961 5.352-4.996 1.665-1.47 5.174-4.359 5.227-4.305zm14.09 5.94l.868.581c1.984 1.327 4.323 3.088 6.113 4.633 1.01.853 2.96 2.651 3.35 3.087l.212.237-1.435.417c-8.117 2.307-14.39 4.36-21.709 7.12-.815.31-1.507.564-1.56.564-.106 0-.195.09 1.631-1.635 4.679-4.414 8.825-9.282 11.909-14.023l.62-.98zm-3.705.945c.035.036-2.392 3.542-3.846 5.522-1.736 2.361-4.82 6.32-6.946 8.9-.886 1.072-1.648 1.962-1.684 1.98-.053.018-.07-.254-.07-.672 0-2.198-.55-4.541-1.507-6.54-.407-.835-.478-1.034-.39-1.125.337-.31 5.494-3.325 8.754-5.123 2.198-1.198 5.636-2.979 5.69-2.942zm-22.4 5.63c.053 0 .461.219.922.473a19.441 19.441 0 0 1 3.048 2.107c.035.036-.425.418-1.028.872a165.605 165.605 0 0 0-5.724 4.432c-1.56 1.272-1.612 1.308-1.435 1.035 1.17-1.834 1.754-2.87 2.374-4.195a34.16 34.16 0 0 0 1.489-3.797c.142-.527.32-.926.354-.926zm5.973 4.796c.088-.018.195.146.673.872 1.01 1.544 1.79 3.615 1.985 5.286l.035.363-2.428.963c-4.342 1.726-8.346 3.433-11.058 4.704-.762.364-2.091 1.018-2.96 1.454-.868.454-1.577.799-1.577.78 0-.017.55-.435 1.223-.944 5.3-3.941 9.889-8.265 13.327-12.588.372-.454.709-.872.744-.89h.036zm-2.747.69c.07.073-1.95 2.416-3.332 3.851-3.42 3.579-6.805 6.376-11.005 9.1-.531.346-1.01.655-1.063.691-.124.073.035-.109 1.878-2.162a49.193 49.193 0 0 0 3.066-3.723c.673-.89.798-1.017 1.773-1.726 2.604-1.925 8.612-6.103 8.683-6.03z" fill="url(#d)"/></g><defs><linearGradient id="b" x1="23.492" y1="108.63" x2="32.077" y2="103.681" gradientUnits="userSpaceOnUse"><stop stop-color="#909CA9"/><stop offset="1" stop-color="#EDEDEE"/></linearGradient><linearGradient id="c" x1="23.687" y1="11.827" x2="30.508" y2="11.827" gradientUnits="userSpaceOnUse"><stop stop-color="#939FAB"/><stop offset="1" stop-color="#DCDEE1"/></linearGradient><radialGradient id="d" cx="0" cy="0" r="1" gradientUnits="userSpaceOnUse" gradientTransform="matrix(-8.69722 -1.3391 2.74276 -17.81379 58.108 43.896)"><stop stop-color="#EE352C"/><stop offset="1" stop-color="#A91D22"/></radialGradient><clipPath id="a"><path fill="#fff" transform="translate(0 .5)" d="M0 0h120v120H0z"/></clipPath></defs></svg>