<svg width="85" height="84" viewBox="0 0 85 84" fill="none" xmlns="http://www.w3.org/2000/svg"><path d="M42.372 0L2.5 13.909l6.3 51.779L42.415 84l33.788-18.56L82.5 13.662 42.372 0z" fill="#B3B3B3"/><path d="M78.5 17.215L42.5 5v75l30.17-16.613 5.83-46.172z" fill="#A6120D"/><path d="M7.5 17.436l5.353 46.172L42.5 80V5l-35 12.436z" fill="#DD1B16"/><path d="M52.5 44.752L42.416 49.43H31.788l-4.996 12.4L17.5 62 42.416 7 52.5 44.752zm-.975-2.356l-9.042-17.761-7.417 17.455h7.35l9.11.306z" fill="#F2F2F2"/><path d="M42.5 7l.064 17.582 8.072 17.417h-8.118l-.018 7.293 11.225.011 5.246 12.534L67.5 62l-25-55z" fill="#B3B3B3"/></svg>