<svg width="120" height="120" viewBox="0 0 120 120" fill="none" xmlns="http://www.w3.org/2000/svg"><g clip-path="url(#a)"><path d="M0 104.527C0 113.073 6.928 120 15.473 120h89.054c8.546 0 15.473-6.928 15.473-15.473V15.473C120 6.927 113.072 0 104.527 0H15.473C6.927 0 0 6.928 0 15.473v89.054z" fill="#563D7C"/><path d="M49.762 53.08V36.087H64.72c1.425 0 2.798.118 4.121.356 1.323.237 2.494.66 3.511 1.272 1.017.61 1.832 1.458 2.442 2.544.61 1.085.916 2.476.916 4.172 0 3.052-.916 5.257-2.747 6.614-1.832 1.357-4.172 2.035-7.022 2.035h-16.18zM33.785 23.672v72.656h35.209c3.256 0 6.428-.407 9.515-1.221 3.086-.814 5.834-2.069 8.242-3.765 2.408-1.696 4.325-3.884 5.75-6.563 1.424-2.68 2.136-5.852 2.136-9.515 0-4.546-1.102-8.43-3.306-11.651-2.206-3.223-5.547-5.479-10.024-6.768 3.256-1.56 5.716-3.561 7.378-6.003 1.662-2.443 2.493-5.495 2.493-9.159 0-3.392-.56-6.24-1.68-8.547-1.119-2.307-2.696-4.156-4.731-5.546-2.035-1.391-4.477-2.392-7.327-3.002-2.85-.611-6.004-.916-9.464-.916h-34.19zm15.977 60.241V63.968h17.4c3.46 0 6.241.797 8.345 2.392 2.103 1.594 3.154 4.257 3.154 7.988 0 1.9-.322 3.46-.966 4.68-.645 1.222-1.51 2.189-2.595 2.901-1.086.713-2.341 1.221-3.765 1.527a21.362 21.362 0 0 1-4.478.457H49.762z" fill="#fff"/></g><defs><clipPath id="a"><path fill="#fff" d="M0 0h120v120H0z"/></clipPath></defs></svg>