<svg width="120" height="120" viewBox="0 0 120 120" fill="none" xmlns="http://www.w3.org/2000/svg"><path d="M102.947 108.329L59.993 120l-42.94-11.671L7.143 0h105.714l-9.91 108.329z" fill="#2659A5"/><path d="M60 8.571v101.415l.1.014 34.746-9.395 8.011-92.034H60z" fill="#449BD6"/><path d="M59.613 35.417L28.571 48.495l1.03 12.934 30.012-12.977 31.914-13.786 1.33-13.237-33.244 13.988z" fill="#fff"/><path d="M28.571 48.643l1.043 12.786L60 48.6V35.714L28.57 48.643z" fill="url(#a)"/><path d="M92.857 21.429L60 35.479v13.092l31.543-13.847 1.314-13.295z" fill="url(#b)"/><path d="M28.571 48.571l1.024 12.805 45.79.143-1.023 17.082-15.07 4.264-14.486-3.677-.881-10.601H30.476l1.749 20.458 27.21 8.098 27.068-7.955L90 48.571H28.57z" fill="url(#c)"/><path opacity=".05" d="M59.965 48.786H29.228l1.02 12.785 29.716.086V48.786zm-.001 34.2l-.155.043-14.413-3.672-.877-10.586H31.11L32.867 89.2l27.097 8.086v-14.3z" fill="#1D1D1B"/><path d="M27.143 21.429h65.714l-1.303 14.285H28.725L27.143 21.43z" fill="url(#d)"/><path opacity=".05" d="M60 21.429H27.143l1.568 14.285H60V21.43z" fill="#1D1D1B"/><defs><linearGradient id="a" x1="44.278" y1="61.429" x2="44.278" y2="35.714" gradientUnits="userSpaceOnUse"><stop offset=".39" stop-color="#D9D9D9" stop-opacity="0"/><stop offset="1" stop-color="#D9D9D9"/></linearGradient><linearGradient id="b" x1="1667.7" y1="947.543" x2="1667.7" y2="439.971" gradientUnits="userSpaceOnUse"><stop offset=".39" stop-color="#D9D9D9" stop-opacity="0"/><stop offset="1" stop-color="#D9D9D9"/></linearGradient><linearGradient id="c" x1="28.571" y1="72.85" x2="90.014" y2="72.85" gradientUnits="userSpaceOnUse"><stop stop-color="#EDEDEC"/><stop offset="1" stop-color="#fff"/></linearGradient><linearGradient id="d" x1="923.486" y1="307.143" x2="4006.8" y2="307.143" gradientUnits="userSpaceOnUse"><stop stop-color="#EDEDEC"/><stop offset="1" stop-color="#fff"/></linearGradient></defs></svg>