<?xml version="1.0" encoding="utf-8"?>
<!-- Generator: Adobe Illustrator 21.1.0, SVG Export Plug-In . SVG Version: 6.00 Build 0)  -->
<svg version="1.1" id="Layer_1" xmlns="http://www.w3.org/2000/svg" xmlns:xlink="http://www.w3.org/1999/xlink" x="0px" y="0px"
	 viewBox="0 0 553 240" style="enable-background:new 0 0 553 240;" xml:space="preserve">
<style type="text/css">
	.st0{fill:#FFFFFF;}
	.st1{fill:#5C2D91;}
	.st2{opacity:0.1;fill:#FFFFFF;enable-background:new    ;}
	.st3{fill:#F2F2F2;}
</style>
<g id="Layer_1_xA0_Image_1_">
</g>
<g>
	<g id="Layer_2_xA0_Image_1_">
		<rect x="23.3" y="19.6" class="st0" width="509" height="199"/>
	</g>
	<g>
		<circle class="st1" cx="278.6" cy="118.3" r="55.7"/>
		<path class="st2" d="M240,78.3c-23,20.5-25,55.6-4.5,78.6s55.6,25,78.6,4.5c1.6-1.4,3.1-2.9,4.5-4.5L240,78.3z"/>
		<path class="st0" d="M235.8,127.4c-0.7,0-1.3-0.3-1.7-0.7c-0.5-0.5-0.7-1.1-0.7-1.7c0-0.7,0.3-1.3,0.7-1.7
			c0.4-0.5,1.1-0.8,1.7-0.7c0.7,0,1.3,0.3,1.7,0.7c0.5,0.5,0.7,1.1,0.7,1.7c0,0.7-0.3,1.3-0.7,1.7
			C237.1,127.2,236.4,127.4,235.8,127.4z"/>
		<path class="st0" d="M270.3,127h-4.6l-16.3-25.3c-0.4-0.6-0.7-1.3-1-2h-0.1c0.2,1.4,0.2,2.9,0.2,4.3V127h-3.7V95.3h4.8l15.9,24.8
			c0.7,1,1.1,1.7,1.3,2.1h0.1c-0.2-1.5-0.3-3.1-0.2-4.7V95.3h3.7V127z"/>
		<path class="st0" d="M295.4,127h-16.9V95.3h16.1v3.4h-12.3v10.5h11.4v3.3h-11.4v11h13.1L295.4,127z"/>
		<path class="st0" d="M320.3,98.6h-9.2V127h-3.7V98.6h-9.1v-3.4h22V98.6z"/>
		<path class="st3" d="M268.3,148.6c-1.3,0.6-2.6,0.9-4,0.9c-1.9,0.1-3.7-0.6-5-2c-1.3-1.4-2-3.3-1.9-5.2c-0.1-2.1,0.7-4.1,2.1-5.7
			c1.4-1.4,3.3-2.2,5.4-2.2c1.2,0,2.4,0.2,3.5,0.6v1.7c-1.1-0.6-2.3-0.9-3.5-0.9c-1.6,0-3,0.6-4.1,1.7c-1.1,1.2-1.6,2.8-1.6,4.5
			c-0.1,1.6,0.4,3.1,1.5,4.3c1,1.1,2.4,1.6,3.8,1.6c1.3,0,2.7-0.3,3.8-1L268.3,148.6z"/>
		<path class="st3" d="M275.5,149.4c-1.4,0-2.8-0.5-3.7-1.5c-1-1.1-1.4-2.5-1.4-3.9c-0.1-1.5,0.4-3,1.4-4.1c1-1,2.4-1.5,3.9-1.5
			c1.4-0.1,2.7,0.5,3.6,1.4c0.9,1.1,1.4,2.5,1.3,4c0.1,1.5-0.4,2.9-1.4,4C278.3,148.9,276.9,149.4,275.5,149.4z M275.6,139.9
			c-1,0-1.9,0.4-2.5,1.1c-0.7,0.9-1,1.9-0.9,3c-0.1,1.1,0.3,2.1,0.9,2.9c0.6,0.7,1.6,1.1,2.5,1.1c0.9,0.1,1.9-0.3,2.5-1
			c0.6-0.9,0.9-1.9,0.9-3c0.1-1.1-0.2-2.1-0.9-3C277.5,140.2,276.5,139.8,275.6,139.9z"/>
		<path class="st3" d="M288.8,140.4c-0.4-0.2-0.8-0.4-1.3-0.3c-0.7,0-1.4,0.4-1.7,1c-0.5,0.8-0.8,1.8-0.7,2.7v5.3h-1.7v-10.4h1.7
			v2.2l0,0c0.2-0.7,0.6-1.3,1.1-1.7c0.5-0.4,1-0.6,1.6-0.6c0.3,0,0.7,0,1,0.1V140.4z"/>
		<path class="st3" d="M299,144.4h-7.4c0,1,0.3,1.9,0.9,2.7c0.7,0.7,1.6,1,2.5,0.9c1.2,0,2.3-0.4,3.2-1.2v1.6
			c-1.1,0.7-2.3,1.1-3.6,1c-1.3,0.1-2.6-0.5-3.5-1.4c-0.9-1.1-1.4-2.6-1.3-4c-0.1-1.4,0.4-2.9,1.4-4c0.9-1,2.1-1.6,3.5-1.5
			c1.2-0.1,2.4,0.4,3.2,1.3c0.8,1.1,1.2,2.4,1.1,3.7L299,144.4z M297.2,143c0-0.8-0.2-1.6-0.7-2.2c-0.5-0.5-1.2-0.8-1.9-0.8
			c-0.8,0-1.5,0.3-2,0.9c-0.6,0.6-0.9,1.4-1,2.2L297.2,143z"/>
	</g>
</g>
</svg>
