<svg width="85" height="84" viewBox="0 0 85 84" fill="none" xmlns="http://www.w3.org/2000/svg"><g clip-path="url(#a)"><path d="M75.742 16.328a42 42 0 1 0-7.562 58.905c18.35-14.18 21.735-40.55 7.56-58.905h.002z" fill="#FF6C37"/><path d="M56.665 26.76l-17.71 17.85-5.004-5.146c17.43-17.43 19.18-15.855 22.716-12.705h-.002z" fill="#fff"/><path d="M38.957 45.097a.63.63 0 0 1-.42-.174l-5.04-5.04a.63.63 0 0 1 0-.876c17.185-17.184 19.53-16.38 23.59-12.705a.56.56 0 0 1 .21.456.493.493 0 0 1-.175.455l-17.71 17.711a.663.663 0 0 1-.455.175v-.002zm-4.13-5.634l4.13 4.13 16.8-16.8a3.78 3.78 0 0 0-4.97-.84c-3.045 1.365-7.945 5.53-15.96 13.51z" fill="#FF6C37"/><path d="M44.031 49.544l-4.83-4.935 17.71-17.5c4.76 4.655-2.31 12.425-12.88 22.434v.001z" fill="#fff"/><path d="M44.032 50.174a.735.735 0 0 1-.42-.174l-4.935-4.83a.735.735 0 0 1 0-.56.678.678 0 0 1 0-.456l17.71-17.71a.664.664 0 0 1 .909 0 5.428 5.428 0 0 1 1.75 4.165c0 4.725-5.391 10.674-14.56 19.355a.735.735 0 0 1-.456.21h.002zm-3.92-5.565l3.954 3.954c7-6.615 13.685-13.44 13.72-18.06a3.99 3.99 0 0 0-.91-2.695L40.11 44.609z" fill="#FF6C37"/><path d="M34.09 39.57l3.5 3.5a.21.21 0 0 1 0 .315l-7.385 1.575a.7.7 0 0 1-.63-1.19l4.305-4.27s.14 0 .21.07z" fill="#fff"/><path d="M30.03 45.66a1.365 1.365 0 0 1-1.154-.666 1.331 1.331 0 0 1 .245-1.575l4.27-4.305a.84.84 0 0 1 1.12 0l3.5 3.5a.772.772 0 0 1 .21.77.812.812 0 0 1-.595.561l-7.385 1.575-.21.14zm3.921-5.32l-3.954 3.954 6.545-1.4-2.59-2.554z" fill="#FF6C37"/><path d="M66.082 16.923a6.793 6.793 0 0 0-9.169-.24 6.788 6.788 0 0 0-1.042 9.113 6.792 6.792 0 0 0 8.987 1.837l-4.76-4.76 5.984-5.95z" fill="#fff"/><path d="M61.356 29.242a7.416 7.416 0 0 1-6.767-4.604 7.438 7.438 0 0 1 1.575-8.03 7.494 7.494 0 0 1 10.5 0 .595.595 0 0 1 .154.706.603.603 0 0 1-.154.205l-5.67 5.355 4.305 4.236a.59.59 0 0 1 .174.525.63.63 0 0 1-.28.455 7.613 7.613 0 0 1-3.849 1.155l.012-.003zm0-13.58a6.135 6.135 0 0 0-5.661 3.806 6.184 6.184 0 0 0 1.322 6.694 6.122 6.122 0 0 0 6.79 1.296l-4.131-4.131a.56.56 0 0 1 0-.875l5.46-5.496a6.28 6.28 0 0 0-3.78-1.295v.001z" fill="#FF6C37"/><path d="M66.186 17.028l-5.985 5.95 4.76 4.76c.48-.275.926-.604 1.33-.98a7 7 0 0 0-.105-9.73z" fill="#fff"/><path d="M64.856 28.263a.525.525 0 0 1-.42-.174l-4.76-4.76a.56.56 0 0 1 0-.876l5.949-5.845a.63.63 0 0 1 1.05 0 7.351 7.351 0 0 1 0 10.5 6.408 6.408 0 0 1-1.4 1.12.564.564 0 0 1-.42.035zm-3.85-5.389l3.954 3.955c.273-.19.53-.401.771-.63a6.195 6.195 0 0 0 1.82-4.375 6.011 6.011 0 0 0-1.505-3.99l-5.04 5.04z" fill="#FF6C37"/><path d="M57.401 27.494a2.557 2.557 0 0 0-3.5 0L38.047 43.313l2.625 2.66 16.764-14.7a2.595 2.595 0 0 0-.035-3.78v.001z" fill="#fff"/><path d="M40.53 46.604a.63.63 0 0 1-.42-.174l-2.66-2.66a.63.63 0 0 1 0-.876l15.855-15.786a3.22 3.22 0 0 1 5.496 2.38 3.295 3.295 0 0 1-1.086 2.31l-16.764 14.7a.598.598 0 0 1-.42.105v.001zm-1.854-3.292l1.75 1.785 16.45-14.315c.406-.354.649-.861.665-1.4a1.88 1.88 0 0 0-.595-1.435 1.96 1.96 0 0 0-2.765 0L38.676 43.312z" fill="#FF6C37"/><path d="M25.761 61.338a.355.355 0 0 0 0 .42l.7 3.045a.902.902 0 0 1-.436.92.853.853 0 0 1-1-.102l-4.794-4.62 14.945-15.063h5.18l3.5 3.5a79.462 79.462 0 0 1-18.095 11.9z" fill="#fff"/><path d="M25.446 66.483a1.478 1.478 0 0 1-1.05-.455l-4.584-4.585a.56.56 0 0 1 0-.875L34.86 45.483a.59.59 0 0 1 .315-.174h5.215a.63.63 0 0 1 .42 0l3.5 3.5c.135.125.2.309.175.49a.564.564 0 0 1-.21.455l-.28.246A85.74 85.74 0 0 1 26.04 61.514l.665 2.835a1.509 1.509 0 0 1-1.434 1.855l.174.28zm-4.27-5.495l4.13 4.164a.21.21 0 0 0 .28 0 .21.21 0 0 0 0-.245l-.7-3.045a.977.977 0 0 1 .525-1.12 86.043 86.043 0 0 0 17.5-11.27l-2.87-2.87h-4.69L21.176 60.987z" fill="#FF6C37"/><path d="M16.627 64.594l3.5-3.501 5.39 5.39-8.574-.594a.701.701 0 0 1-.63-.533.696.696 0 0 1 .315-.761l-.001-.001z" fill="#fff"/><path d="M25.62 67.008l-8.54-.594a1.352 1.352 0 0 1-1.12-.857 1.338 1.338 0 0 1 .28-1.384l3.5-3.5a.63.63 0 0 1 .876 0l5.355 5.355c.153.21.153.49 0 .7a.666.666 0 0 1-.35.28zm-8.54-1.96l7 .456-3.85-3.605-3.15 3.15z" fill="#FF6C37"/><path d="M40.846 46.36l-7.07 1.086 4.094-4.06 2.976 2.974z" fill="#fff"/><path d="M33.777 48.108a.599.599 0 0 1-.56-.35.59.59 0 0 1 0-.7l4.059-4.095a.664.664 0 0 1 .91 0l2.976 2.974a.591.591 0 0 1 0 .63.617.617 0 0 1-.49.456l-6.999 1.085h.104zm4.095-3.815l-2.275 2.275 3.92-.595-1.645-1.68z" fill="#FF6C37"/><path d="M40.847 46.358l-4.935.63a.63.63 0 0 1-.594-1.05l2.555-2.556 2.974 2.976z" fill="#fff"/><path d="M35.771 47.654a1.295 1.295 0 0 1-1.12-.665 1.26 1.26 0 0 1 .21-1.506l2.556-2.555a.664.664 0 0 1 .91 0l2.975 2.975a.63.63 0 0 1-.384 1.086l-4.9.63-.247.035zm0-1.295l3.71-.456-1.644-1.644-2.1 2.1h.034zm30.45-25.305a.525.525 0 0 0-.665-.21.485.485 0 0 0-.244.288.496.496 0 0 0 .034.377 1.506 1.506 0 0 1-.175 1.575.444.444 0 0 0-.13.332.499.499 0 0 0 .13.332.38.38 0 0 0 .28 0 .46.46 0 0 0 .455-.14 2.416 2.416 0 0 0 .315-2.556v.002z" fill="#FF6C37"/></g><defs><clipPath id="a"><path fill="#fff" transform="translate(.5)" d="M0 0h84v84H0z"/></clipPath></defs></svg>