<svg width="120" height="120" viewBox="0 0 120 120" fill="none" xmlns="http://www.w3.org/2000/svg"><path d="M88.983 87.356c.764-6.36.534-7.289 5.269-6.262l1.204.108c3.643.164 8.405-.586 11.25-1.885 6.024-2.794 9.596-7.462 3.657-6.234-13.547 2.794-14.532-1.796-14.532-1.796 14.311-21.234 20.297-48.187 15.127-54.782-14.081-18-38.461-9.488-38.869-9.263l-.131.024c-2.672-.563-5.625-.891-9.047-.938-6.131-.094-10.781 1.608-14.316 4.285 0 0-43.486-17.916-41.465 22.532.431 8.607 12.328 65.157 26.531 48.047 5.198-6.253 10.214-11.536 10.214-11.536 2.484 1.655 5.47 2.499 8.597 2.194l.244-.206a9.423 9.423 0 0 0 .098 2.428c-3.656 4.087-2.578 4.805-9.89 6.31-7.397 1.523-3.047 4.237-.216 4.95 3.44.862 11.4 2.08 16.781-5.448l-.215.858c1.434 1.149 1.335 8.25 1.546 13.322.211 5.072.544 9.811 1.58 12.6 1.036 2.789 2.25 9.984 11.86 7.969 8.03-1.721 14.17-4.2 14.732-27.235" fill="#000"/><path d="M88.983 87.356c.764-6.36.534-7.289 5.269-6.262l1.204.108c3.643.164 8.405-.586 11.25-1.885 6.024-2.794 9.596-7.462 3.657-6.234-13.547 2.794-14.532-1.796-14.532-1.796 14.311-21.234 20.297-48.187 15.127-54.782-14.081-18-38.461-9.488-38.869-9.263l-.131.024c-2.672-.563-5.625-.891-9.047-.938-6.131-.094-10.781 1.608-14.316 4.285 0 0-43.486-17.916-41.465 22.532.431 8.607 12.328 65.157 26.531 48.047a263.705 263.705 0 0 1 10.214-11.536c2.484 1.655 5.47 2.499 8.597 2.194l.244-.206a9.423 9.423 0 0 0 .098 2.428c-3.656 4.087-2.578 4.805-9.89 6.31-7.397 1.523-3.047 4.237-.216 4.95 3.44.862 11.4 2.08 16.781-5.448l-.215.858c1.434 1.149 1.335 8.25 1.546 13.322.211 5.072.544 9.811 1.58 12.6 1.036 2.789 2.25 9.984 11.86 7.969 8.03-1.721 14.17-4.2 14.732-27.235" stroke="#000" stroke-width="5.372"/><path d="M110.32 73.125c-13.546 2.794-14.53-1.795-14.53-1.795 14.31-21.235 20.296-48.188 15.13-54.783-14.08-18-38.46-9.483-38.868-9.263l-.132.024a48.328 48.328 0 0 0-9.042-.942c-6.131-.094-10.781 1.607-14.316 4.284 0 0-43.49-17.916-41.465 22.533.431 8.606 12.328 65.156 26.531 48.047a264.988 264.988 0 0 1 10.247-11.574c2.484 1.655 5.47 2.499 8.597 2.194l.244-.206a9.463 9.463 0 0 0 .098 2.428c-3.656 4.087-2.578 4.804-9.89 6.31-7.397 1.523-3.047 4.237-.216 4.95 3.44.862 11.4 2.08 16.781-5.448l-.215.858c1.434 1.149 2.437 7.467 2.268 13.195-.169 5.729-.281 9.657.844 12.732 1.125 3.075 2.25 9.984 11.86 7.968 8.029-1.72 12.187-6.187 12.773-13.621.412-5.288 1.34-4.51 1.406-9.235l.75-2.24c.858-7.172.14-9.483 5.086-8.405l1.205.108c3.642.164 8.409-.586 11.203-1.885 6.023-2.793 9.595-7.462 3.656-6.234h-.005z" fill="#336791"/><path d="M72.047 7.064c-1.5.469 24.206-9.398 38.822 9.272 5.156 6.595-.821 33.548-15.132 54.783m-35.671 6.07c-.375 13.34.093 26.775 1.396 30 1.304 3.225 4.102 9.609 13.716 7.556 8.03-1.72 10.955-5.053 12.22-12.408l2.968-23.517-30.3-1.631zM48.544 10.313S5.025-7.482 7.05 32.966c.431 8.606 12.328 65.156 26.531 48.047 5.185-6.248 9.872-11.138 9.872-11.138l5.09-59.564z" stroke="#fff" stroke-width="1.79" stroke-linecap="round" stroke-linejoin="round"/><path d="M95.742 71.11s.938 4.593 14.531 1.79c5.94-1.228 2.363 3.44-3.656 6.234-4.94 2.297-16.022 2.883-16.205-.28-.468-8.18 5.832-5.696 5.377-7.745-.412-1.846-3.234-3.656-5.09-8.174-1.627-3.938-22.313-34.172 5.737-29.686 1.031-.211-7.313-26.72-33.563-27.104-26.25-.384-25.42 32.274-25.42 32.274" stroke="#fff" stroke-width="1.79" stroke-linecap="round" stroke-linejoin="bevel"/><path d="M52.72 73.912c-3.656 4.088-2.578 4.805-9.89 6.31-7.397 1.523-3.047 4.237-.216 4.95 3.44.862 11.4 2.081 16.781-5.452 1.64-2.297-.009-5.953-2.259-6.881-1.088-.45-2.54-1.013-4.406 1.078l-.01-.005z" stroke="#fff" stroke-width="1.79" stroke-linejoin="round"/><path d="M52.481 73.842c-.375-2.405.788-5.26 2.03-8.606 1.865-5.016 6.169-10.032 2.728-25.955-2.564-11.86-19.781-2.47-19.781-.862 0 1.607.778 8.156-.282 15.773-1.392 9.947 6.329 18.356 15.216 17.498" stroke="#fff" stroke-width="1.79" stroke-linecap="round" stroke-linejoin="round"/><path d="M48.385 38.18c-.08.548 1.007 2.015 2.418 2.212 1.411.197 2.616-.947 2.696-1.5.08-.553-1.008-1.153-2.42-1.35-1.41-.197-2.624.094-2.694.638z" fill="#fff" stroke="#fff" stroke-width=".598"/><path d="M91.34 37.06c.076.548-1.007 2.015-2.418 2.212-1.41.197-2.625-.947-2.695-1.5-.07-.553 1.008-1.153 2.419-1.35 1.41-.197 2.625.094 2.695.638z" fill="#fff" stroke="#fff" stroke-width=".297"/><path d="M96.384 33.258c.234 4.312-.928 7.242-1.078 11.831-.216 6.666 3.178 14.297-1.936 21.938" stroke="#fff" stroke-width="1.79" stroke-linecap="round" stroke-linejoin="round"/></svg>